<svg width="40" height="40" viewBox="0 0 40 40" fill="none" xmlns="http://www.w3.org/2000/svg">
<path d="M6.6665 29.166C6.6665 29.8291 6.9299 30.4649 7.39874 30.9338C7.86758 31.4026 8.50346 31.666 9.1665 31.666H10.0848C10.2761 32.6079 10.7871 33.4547 11.5313 34.063C12.2755 34.6712 13.207 35.0035 14.1682 35.0035C15.1293 35.0035 16.0609 34.6712 16.8051 34.063C17.5492 33.4547 18.0602 32.6079 18.2515 31.666H23.4998C24.6307 31.6581 25.7347 31.3204 26.6765 30.6943C26.6765 30.741 26.6632 30.786 26.6632 30.8327C26.6626 31.7293 26.9512 32.6021 27.4862 33.3216C28.0212 34.0411 28.774 34.5688 29.6328 34.8264C30.4916 35.084 31.4105 35.0577 32.2532 34.7514C33.0959 34.4451 33.8172 33.8752 34.3102 33.1263C34.8032 32.3774 35.0414 31.4895 34.9895 30.5944C34.9377 29.6993 34.5985 28.8448 34.0223 28.1578C33.4461 27.4709 32.6638 26.9881 31.7914 26.7812C30.919 26.5743 30.0031 26.6543 29.1798 27.0093C29.3204 26.3863 29.3565 25.7442 29.2865 25.1093L28.6415 19.9427C28.814 19.9804 28.99 19.9994 29.1665 19.9993H29.9998C30.4419 19.9993 30.8658 19.8238 31.1783 19.5112C31.4909 19.1986 31.6665 18.7747 31.6665 18.3327V16.666C31.6665 16.224 31.4909 15.8001 31.1783 15.4875C30.8658 15.1749 30.4419 14.9993 29.9998 14.9993H29.1665C28.7804 15.0012 28.3999 15.0924 28.0549 15.2659C27.7099 15.4394 27.4099 15.6904 27.1782 15.9993L26.9098 15.731C26.44 15.2643 25.8054 15.0015 25.1432 14.9993H24.1665C23.9455 14.9993 23.7335 15.0871 23.5772 15.2434C23.421 15.3997 23.3332 15.6117 23.3332 15.8327C23.3332 16.0537 23.421 16.2657 23.5772 16.4219C23.7335 16.5782 23.9455 16.666 24.1665 16.666H25.1432C25.3638 16.6661 25.5753 16.7536 25.7315 16.9093L26.7048 17.8827C26.7298 18.0377 27.3282 22.846 27.6365 25.316C27.7098 25.9024 27.6575 26.4977 27.4831 27.0624C27.3087 27.627 27.0161 28.1481 26.6249 28.5911C26.2337 29.034 25.7527 29.3886 25.2139 29.6314C24.6751 29.8742 24.0908 29.9997 23.4998 29.9993H23.1832L21.6665 22.4177V20.8327C21.6665 20.1696 21.4031 19.5338 20.9343 19.0649C20.4654 18.5961 19.8295 18.3327 19.1665 18.3327H15.8332V14.166C15.8332 13.503 15.5698 12.8671 15.1009 12.3982C14.6321 11.9294 13.9962 11.666 13.3332 11.666H9.1665C8.50346 11.666 7.86758 11.9294 7.39874 12.3982C6.9299 12.8671 6.6665 13.503 6.6665 14.166V20.8327C6.6665 21.4957 6.9299 22.1316 7.39874 22.6005C7.86758 23.0693 8.50346 23.3327 9.1665 23.3327H9.50984C8.62717 24.0281 7.913 24.9139 7.42065 25.924C6.9283 26.9341 6.67051 28.0423 6.6665 29.166ZM30.8332 28.3327C31.3276 28.3327 31.811 28.4793 32.2221 28.754C32.6332 29.0287 32.9536 29.4192 33.1429 29.876C33.3321 30.3328 33.3816 30.8355 33.2851 31.3204C33.1887 31.8054 32.9506 32.2508 32.6009 32.6004C32.2513 32.9501 31.8058 33.1882 31.3209 33.2846C30.8359 33.3811 30.3333 33.3316 29.8765 33.1424C29.4196 32.9532 29.0292 32.6327 28.7545 32.2216C28.4798 31.8105 28.3332 31.3271 28.3332 30.8327C28.3332 30.1696 28.5966 29.5338 29.0654 29.0649C29.5342 28.5961 30.1701 28.3327 30.8332 28.3327ZM15.8332 19.9993H19.1665C19.3875 19.9993 19.5995 20.0871 19.7558 20.2434C19.912 20.3997 19.9998 20.6117 19.9998 20.8327V21.666H15.8332V19.9993ZM16.5132 31.666C16.3435 32.1531 16.0264 32.5754 15.6059 32.8742C15.1854 33.1729 14.6823 33.3335 14.1665 33.3335C13.6507 33.3335 13.1476 33.1729 12.7271 32.8742C12.3066 32.5754 11.9895 32.1531 11.8198 31.666H16.5132ZM8.33317 14.166C8.33317 13.945 8.42097 13.733 8.57725 13.5768C8.73353 13.4205 8.94549 13.3327 9.1665 13.3327H13.3332C13.5542 13.3327 13.7661 13.4205 13.9224 13.5768C14.0787 13.733 14.1665 13.945 14.1665 14.166V14.9993H8.33317V14.166ZM8.33317 16.666H14.1665V18.3077H8.33317V16.666ZM9.1665 21.666C8.94549 21.666 8.73353 21.5782 8.57725 21.4219C8.42097 21.2657 8.33317 21.0537 8.33317 20.8327V19.9743H14.1665V21.666H9.1665Z" fill="#A098AE"/>
</svg>
