<svg width="180" height="31" viewBox="0 0 180 31" fill="none" xmlns="http://www.w3.org/2000/svg">
<path d="M24.8 1.92V30H17.96V18.44H7.32V30H0.48V1.92H7.32V12.92H17.96V1.92H24.8ZM39.8978 30.32C37.7111 30.32 35.7378 29.8533 33.9778 28.92C32.2445 27.9867 30.8711 26.6533 29.8578 24.92C28.8711 23.1867 28.3778 21.16 28.3778 18.84C28.3778 16.5467 28.8845 14.5333 29.8978 12.8C30.9111 11.04 32.2978 9.69333 34.0578 8.76C35.8178 7.82667 37.7911 7.36 39.9778 7.36C42.1645 7.36 44.1378 7.82667 45.8978 8.76C47.6578 9.69333 49.0445 11.04 50.0578 12.8C51.0711 14.5333 51.5778 16.5467 51.5778 18.84C51.5778 21.1333 51.0578 23.16 50.0178 24.92C49.0045 26.6533 47.6045 27.9867 45.8178 28.92C44.0578 29.8533 42.0845 30.32 39.8978 30.32ZM39.8978 24.4C41.2045 24.4 42.3111 23.92 43.2178 22.96C44.1511 22 44.6178 20.6267 44.6178 18.84C44.6178 17.0533 44.1645 15.68 43.2578 14.72C42.3778 13.76 41.2845 13.28 39.9778 13.28C38.6445 13.28 37.5378 13.76 36.6578 14.72C35.7778 15.6533 35.3378 17.0267 35.3378 18.84C35.3378 20.6267 35.7645 22 36.6178 22.96C37.4978 23.92 38.5911 24.4 39.8978 24.4ZM67.6466 24.2V30H64.1666C61.6866 30 59.7532 29.4 58.3666 28.2C56.9799 26.9733 56.2866 24.9867 56.2866 22.24V13.36H53.5666V7.68H56.2866V2.24H63.1266V7.68H67.6066V13.36H63.1266V22.32C63.1266 22.9867 63.2866 23.4667 63.6066 23.76C63.9266 24.0533 64.4599 24.2 65.2066 24.2H67.6466ZM103.257 1.92V30H96.4166V13.16L90.1366 30H84.6166L78.2966 13.12V30H71.4566V1.92H79.5366L87.4166 21.36L95.2166 1.92H103.257ZM129.215 18.48C129.215 19.12 129.175 19.7867 129.095 20.48H113.615C113.722 21.8667 114.162 22.9333 114.935 23.68C115.735 24.4 116.709 24.76 117.855 24.76C119.562 24.76 120.749 24.04 121.415 22.6H128.695C128.322 24.0667 127.642 25.3867 126.655 26.56C125.695 27.7333 124.482 28.6533 123.015 29.32C121.549 29.9867 119.909 30.32 118.095 30.32C115.909 30.32 113.962 29.8533 112.255 28.92C110.549 27.9867 109.215 26.6533 108.255 24.92C107.295 23.1867 106.815 21.16 106.815 18.84C106.815 16.52 107.282 14.4933 108.215 12.76C109.175 11.0267 110.509 9.69333 112.215 8.76C113.922 7.82667 115.882 7.36 118.095 7.36C120.255 7.36 122.175 7.81333 123.855 8.72C125.535 9.62667 126.842 10.92 127.775 12.6C128.735 14.28 129.215 16.24 129.215 18.48ZM122.215 16.68C122.215 15.5067 121.815 14.5733 121.015 13.88C120.215 13.1867 119.215 12.84 118.015 12.84C116.869 12.84 115.895 13.1733 115.095 13.84C114.322 14.5067 113.842 15.4533 113.655 16.68H122.215ZM131.464 18.8C131.464 16.5067 131.89 14.4933 132.744 12.76C133.624 11.0267 134.81 9.69333 136.304 8.76C137.797 7.82667 139.464 7.36 141.304 7.36C142.877 7.36 144.25 7.68 145.424 8.32C146.624 8.96 147.544 9.8 148.184 10.84V7.68H155.024V30H148.184V26.84C147.517 27.88 146.584 28.72 145.384 29.36C144.21 30 142.837 30.32 141.264 30.32C139.45 30.32 137.797 29.8533 136.304 28.92C134.81 27.96 133.624 26.6133 132.744 24.88C131.89 23.12 131.464 21.0933 131.464 18.8ZM148.184 18.84C148.184 17.1333 147.704 15.7867 146.744 14.8C145.81 13.8133 144.664 13.32 143.304 13.32C141.944 13.32 140.784 13.8133 139.824 14.8C138.89 15.76 138.424 17.0933 138.424 18.8C138.424 20.5067 138.89 21.8667 139.824 22.88C140.784 23.8667 141.944 24.36 143.304 24.36C144.664 24.36 145.81 23.8667 146.744 22.88C147.704 21.8933 148.184 20.5467 148.184 18.84ZM166.812 0.4V30H159.972V0.4H166.812Z" fill="#2E2E2E"/>
<path d="M174.969 30.32C173.769 30.32 172.782 29.9733 172.009 29.28C171.262 28.56 170.889 27.68 170.889 26.64C170.889 25.5733 171.262 24.68 172.009 23.96C172.782 23.24 173.769 22.88 174.969 22.88C176.142 22.88 177.102 23.24 177.849 23.96C178.622 24.68 179.009 25.5733 179.009 26.64C179.009 27.68 178.622 28.56 177.849 29.28C177.102 29.9733 176.142 30.32 174.969 30.32Z" fill="#F8B602"/>
</svg>
