<svg width="16" height="16" viewBox="0 0 16 16" fill="none" xmlns="http://www.w3.org/2000/svg">
<line x1="4.92285" y1="6.9668" x2="11.0767" y2="6.9668" stroke="black"/>
<path d="M15.5 6.93352C15.5 4.99476 14.8216 3.40415 13.5786 2.29323C12.3298 1.17721 10.4597 0.500131 8 0.500131C5.54026 0.500131 3.6702 1.17721 2.42143 2.29323C1.17836 3.40415 0.5 4.99476 0.5 6.93352C0.5 8.81738 1.63964 10.9678 3.21367 12.6742C3.99325 13.5193 4.85982 14.2332 5.70608 14.7327C6.55971 15.2366 7.35463 15.5001 8.00002 15.5001C8.64539 15.5002 9.4403 15.2367 10.2939 14.7328C11.1402 14.2333 12.0067 13.5194 12.7863 12.6743C14.3604 10.9679 15.5 8.81738 15.5 6.93352Z" stroke="#020000"/>
</svg>
