<svg width="40" height="40" viewBox="0 0 40 40" fill="none" xmlns="http://www.w3.org/2000/svg">
<path d="M8.3335 30.8325C8.3335 33.6959 14.8135 34.9992 20.8335 34.9992C26.8535 34.9992 33.3335 33.6959 33.3335 30.8325C33.3335 28.5592 29.3985 27.5325 26.5635 27.0892L28.5002 25.1659C30.0153 23.6508 31.0472 21.7205 31.4653 19.619C31.8834 17.5175 31.6689 15.3393 30.8489 13.3597C30.029 11.3801 28.6405 9.68811 26.8589 8.49768C25.0774 7.30726 22.9828 6.67188 20.8402 6.67188C18.6975 6.67188 16.6029 7.30726 14.8214 8.49768C13.0398 9.68811 11.6513 11.3801 10.8314 13.3597C10.0115 15.3393 9.79698 17.5175 10.2151 19.619C10.6331 21.7205 11.665 23.6508 13.1802 25.1659L15.1102 27.0959C12.2685 27.5325 8.3335 28.5592 8.3335 30.8325ZM22.5002 13.3325C22.5002 13.1778 22.5433 13.0261 22.6246 12.8944C22.706 12.7628 22.8224 12.6564 22.9608 12.5872C23.0992 12.518 23.2542 12.4887 23.4083 12.5026C23.5625 12.5165 23.7097 12.573 23.8335 12.6659C24.8654 13.4401 25.7223 14.4234 26.3481 15.5515C26.9739 16.6797 27.3546 17.9272 27.4652 19.2125C27.5018 19.6074 27.3954 20.0023 27.1653 20.3253C26.9353 20.6483 26.5969 20.878 26.2118 20.9725L24.1668 21.4842V23.3325C24.1668 23.5535 24.079 23.7655 23.9228 23.9218C23.7665 24.0781 23.5545 24.1659 23.3335 24.1659C23.1125 24.1659 22.9005 24.0781 22.7442 23.9218C22.588 23.7655 22.5002 23.5535 22.5002 23.3325V13.3325ZM15.0002 14.9992V13.3325C15.0002 13.1115 15.088 12.8995 15.2442 12.7433C15.4005 12.587 15.6125 12.4992 15.8335 12.4992C16.0545 12.4992 16.2665 12.587 16.4228 12.7433C16.579 12.8995 16.6668 13.1115 16.6668 13.3325V14.9992C16.6701 15.2866 16.7489 15.5681 16.8951 15.8155C17.0413 16.063 17.25 16.2677 17.5002 16.4092V13.3325C17.5002 13.1115 17.588 12.8995 17.7442 12.7433C17.9005 12.587 18.1125 12.4992 18.3335 12.4992C18.5545 12.4992 18.7665 12.587 18.9228 12.7433C19.079 12.8995 19.1668 13.1115 19.1668 13.3325V16.4092C19.417 16.2677 19.6257 16.063 19.7719 15.8155C19.9181 15.5681 19.9968 15.2866 20.0002 14.9992V13.3325C20.0002 13.1115 20.088 12.8995 20.2442 12.7433C20.4005 12.587 20.6125 12.4992 20.8335 12.4992C21.0545 12.4992 21.2665 12.587 21.4228 12.7433C21.579 12.8995 21.6668 13.1115 21.6668 13.3325V14.9992C21.6641 15.736 21.4172 16.4512 20.9649 17.0329C20.5126 17.6146 19.8803 18.03 19.1668 18.2142V23.3325C19.1668 23.5535 19.079 23.7655 18.9228 23.9218C18.7665 24.0781 18.5545 24.1659 18.3335 24.1659C18.1125 24.1659 17.9005 24.0781 17.7442 23.9218C17.588 23.7655 17.5002 23.5535 17.5002 23.3325V18.2142C16.7867 18.03 16.1544 17.6146 15.7021 17.0329C15.2498 16.4512 15.0029 15.736 15.0002 14.9992ZM16.5902 28.5759L19.0652 31.0525C19.2973 31.2848 19.573 31.4691 19.8764 31.5949C20.1798 31.7206 20.5051 31.7853 20.8335 31.7853C21.1619 31.7853 21.4872 31.7206 21.7906 31.5949C22.094 31.4691 22.3697 31.2848 22.6018 31.0525L25.0768 28.5759C29.6568 29.1059 31.6668 30.3125 31.6668 30.8325C31.6668 31.5792 27.9818 33.3325 20.8335 33.3325C13.6852 33.3325 10.0002 31.5792 10.0002 30.8325C10.0002 30.3125 12.0102 29.1059 16.5902 28.5759Z" fill="white"/>
</svg>
