<svg width="20" height="20" viewBox="0 0 20 20" fill="none" xmlns="http://www.w3.org/2000/svg">
<path d="M20 1.37959V7.58776C20 8.35042 19.3832 8.96735 18.6207 8.96735H12.4138C11.6513 8.96735 11.0345 8.35042 11.0345 7.58776C11.0345 6.8251 11.6513 6.20817 12.4138 6.20817H15.1461C13.8543 4.49661 11.8164 3.45847 9.64612 3.45847C5.84914 3.45847 2.75862 6.54875 2.75862 10.3469C2.75862 14.1451 5.84871 17.2363 9.64655 17.2363C11.15 17.2363 12.5789 16.7608 13.7793 15.8593C14.3922 15.4053 15.2543 15.5252 15.7108 16.1341C16.1672 16.7446 16.0448 17.6094 15.436 18.066C13.7537 19.3283 11.7567 20 9.65151 20C4.3319 19.9998 0 15.667 0 10.3469C0 5.02689 4.3319 0.694108 9.65086 0.694108C12.6315 0.694108 15.4267 2.09396 17.2414 4.40694V1.37959C17.2414 0.616937 17.8582 0 18.6207 0C19.3832 0 20 0.616937 20 1.37959Z" fill="black"/>
</svg>
